<svg width="896" height="632" viewBox="0 0 896 632" fill="none" xmlns="http://www.w3.org/2000/svg">
    <mask id="b" style="mask-type:alpha" maskUnits="userSpaceOnUse" x="0" y="0" width="872" height="632">
        <path fill="url(#a)" d="M0 0h872v632H0z"/>
    </mask>
    <g mask="url(#b)">
        <path opacity=".2" d="M303.751 453.64C145.831 493.999-1 574.578-1 752.411-1 930.243 127.442 1009 301.926 1009c244.25 0 302.926-210.765 302.926-210.765h9.124v183.298H871V330.881C871 83.541 687.532 1 458.021 1 228.511 1 41.252 77.935 26.654 321.772h257.023c3.65-102.58 64.291-146.583 174.485-146.583 100.928 0 156.095 44.003 156.095 119.116 0 106.223-150.621 119.116-310.226 159.475m89.699 390.28c-82.68 0-134.056-45.825-134.056-119.116 0-84.362 69.765-126.403 152.445-146.583 73.416-18.357 159.745-38.537 201.997-76.934 0 141.117-45.901 342.773-220.245 342.773" stroke="#fff"/>
    </g>
    <defs>
        <linearGradient id="a" x1="436" y1="-80" x2="436" y2="-48" gradientUnits="userSpaceOnUse">
            <stop stop-color="#fff" stop-opacity="0"/>
            <stop offset="1" stop-color="#fff"/>
        </linearGradient>
    </defs>
</svg>
